<svg xmlns="http://www.w3.org/2000/svg" width="32" height="32" fill="none"><path fill="#000" d="M15.106 11.925v-.124h-.002L15.214 0 4.78 16.08l-.315.488.269.045 10.064 1.68.158.027.18-.05 9.841-2.79-9.871-3.555Zm-4.953-3.573 4.51 3.638-9.551 4.131 5.041-7.77Zm4.645 9.638L5.24 16.394l9.56-4.134v5.729h-.002Zm.005-6.272-4.485-3.62 4.586-7.067-.1 10.687Zm.295 6.25.008-5.724 8.889 3.203-8.897 2.52Z"/><path fill="#92EEE5" d="m23.995 15.447-8.897 2.52.008-5.723 8.889 3.203Z"/><path fill="#BE9EFF" d="m14.8 12.26-.002 5.73-9.556-1.596L14.8 12.26Z"/><path fill="#7CACFF" d="m14.663 11.99-9.551 4.132 5.041-7.77 4.51 3.638Z"/><path fill="#FAC3B2" d="m14.904 1.03-.1 10.688-4.486-3.62 4.586-7.067Z"/><path fill="#000" d="M25.524 16.551 14.989 19.77l-.169.052v.45L14.796 32l6.104-8.843.077-.115.091-.132h-.002l4.456-6.359h.002ZM15.098 31.034l.022-10.842 5.518 2.815-5.54 8.027Zm5.709-8.275-5.46-2.784 9.465-2.892-4.005 5.676Z"/><path fill="#FAC3B2" d="m20.638 23.007-5.54 8.027.022-10.842 5.518 2.815Z"/><path fill="#BE9EFF" d="m24.812 17.084-4.005 5.675-5.46-2.784 9.465-2.892Z"/></svg>