<svg xmlns="http://www.w3.org/2000/svg" xmlns:xlink="http://www.w3.org/1999/xlink" viewBox="0 0 103.677 42.919" overflow="visible"><g><path d="M 14.296 16.021 L 14.296 15.854 L 14.293 15.854 L 14.44 0 L 0.422 21.604 L 0 22.258 L 0.361 22.318 L 13.881 24.576 L 14.094 24.612 L 14.335 24.544 L 27.557 20.797 Z M 7.642 11.22 L 13.7 16.108 L 0.869 21.658 L 7.642 11.22 Z M 13.881 24.168 L 1.044 22.024 L 13.884 16.471 L 13.884 24.168 Z M 13.889 15.742 L 7.863 10.879 L 14.024 1.385 Z M 14.285 24.138 L 14.296 16.449 L 26.238 20.752 L 14.285 24.139 Z" fill="rgb(0,0,0)"></path><path d="M 26.137 20.705 L 14.186 24.092 L 14.194 16.402 Z" fill="rgb(146,238,229)"></path><path d="M 13.727 16.402 L 13.725 24.099 L 0.887 21.955 Z" fill="rgb(190,158,255)"></path><path d="M 13.718 15.97 L 0.887 21.52 L 7.66 11.082 Z" fill="rgb(124,172,255)"></path><path d="M 14.139 1.33 L 14.006 15.687 L 7.979 10.824 Z" fill="rgb(250,195,178)"></path><path d="M 28.155 22.165 L 14.001 26.488 L 13.775 26.557 L 13.775 27.163 L 13.742 42.919 L 21.942 31.039 L 22.047 30.885 L 22.168 30.707 L 22.166 30.707 L 28.152 22.165 Z M 14.148 41.622 L 14.178 27.055 L 21.59 30.838 Z M 21.817 30.504 L 14.482 26.764 L 27.198 22.88 Z" fill="rgb(0,0,0)"></path><path d="M 21.629 30.823 L 14.186 41.608 L 14.216 27.041 L 21.628 30.823 Z" fill="rgb(250,195,178)"></path><path d="M 27.345 23.052 L 21.965 30.676 L 14.629 26.936 Z" fill="rgb(190,158,255)"></path><path d="M 42.188 28.793 C 41.428 28.796 40.669 28.754 39.915 28.669 C 39.521 28.625 39.152 28.572 38.802 28.516 C 38.481 28.465 38.163 28.399 37.848 28.32 L 37.848 26.116 C 38.221 26.152 38.646 26.185 39.119 26.212 C 40.096 26.261 41.074 26.286 42.052 26.288 C 42.513 26.288 42.935 26.249 43.277 26.164 C 43.619 26.085 43.885 25.94 44.072 25.732 C 44.258 25.523 44.354 25.239 44.354 24.874 L 44.354 24.365 C 44.354 23.953 44.231 23.632 43.989 23.417 C 43.747 23.195 43.4 23.088 42.951 23.088 L 41.775 23.088 C 40.455 23.088 39.441 22.795 38.738 22.21 C 38.034 21.625 37.68 20.632 37.68 19.225 L 37.68 18.548 C 37.68 17.19 38.066 16.2 38.842 15.571 C 39.613 14.942 40.717 14.63 42.149 14.63 C 42.661 14.63 43.166 14.654 43.67 14.706 C 44.176 14.758 44.661 14.814 45.13 14.886 C 45.599 14.954 45.999 15.026 46.334 15.102 L 46.334 17.306 C 45.695 17.265 45.057 17.227 44.419 17.194 C 43.768 17.159 43.117 17.14 42.466 17.138 C 42.041 17.138 41.663 17.178 41.333 17.262 C 41.003 17.342 40.749 17.499 40.579 17.723 C 40.403 17.947 40.316 18.267 40.316 18.684 L 40.316 19.061 C 40.316 19.549 40.451 19.902 40.729 20.115 C 41.004 20.327 41.409 20.435 41.946 20.435 L 43.309 20.435 C 44.144 20.435 44.831 20.588 45.376 20.896 C 45.917 21.205 46.321 21.629 46.592 22.166 C 46.858 22.707 46.993 23.32 46.993 24.013 L 46.993 24.806 C 46.993 25.9 46.79 26.734 46.385 27.311 C 45.98 27.887 45.419 28.28 44.704 28.488 C 43.989 28.696 43.15 28.801 42.192 28.801 L 42.188 28.792 Z M 56.303 28.8 C 55.506 28.8 54.76 28.736 54.068 28.602 C 53.377 28.469 52.772 28.235 52.255 27.899 C 51.738 27.563 51.338 27.093 51.058 26.491 C 50.78 25.888 50.638 25.119 50.638 24.181 L 50.638 14.63 L 53.539 14.63 L 53.539 24.161 C 53.539 24.683 53.647 25.092 53.863 25.398 C 54.081 25.706 54.393 25.924 54.806 26.066 C 55.218 26.208 55.719 26.276 56.306 26.276 C 56.894 26.276 57.374 26.208 57.787 26.066 C 58.199 25.929 58.511 25.706 58.728 25.398 C 58.945 25.095 59.053 24.683 59.053 24.161 L 59.053 14.63 L 61.975 14.63 L 61.975 24.181 C 61.975 25.119 61.833 25.888 61.545 26.491 C 61.258 27.093 60.858 27.563 60.349 27.899 C 59.841 28.235 59.241 28.469 58.557 28.602 C 57.818 28.74 57.066 28.807 56.314 28.801 L 56.302 28.801 Z M 66.024 28.8 L 66.024 14.631 L 71.779 14.631 C 72.331 14.631 72.843 14.695 73.323 14.83 C 73.792 14.96 74.224 15.2 74.582 15.53 C 74.946 15.865 75.23 16.32 75.439 16.911 C 75.646 17.498 75.751 18.251 75.751 19.172 C 75.751 19.823 75.686 20.377 75.563 20.837 C 75.439 21.297 75.27 21.671 75.063 21.965 C 74.855 22.257 74.619 22.494 74.359 22.674 C 74.105 22.847 73.835 22.994 73.551 23.113 L 76.146 28.802 L 73.307 28.802 L 71.067 23.553 C 70.915 23.553 70.743 23.553 70.552 23.544 C 70.355 23.536 70.159 23.536 69.96 23.536 L 69.359 23.536 C 69.16 23.536 68.976 23.528 68.816 23.516 L 68.816 28.802 L 66.023 28.802 Z M 68.808 21.271 L 71.291 21.271 C 71.543 21.271 71.767 21.238 71.967 21.174 C 72.168 21.108 72.35 20.994 72.495 20.839 C 72.647 20.681 72.763 20.465 72.843 20.197 C 72.927 19.928 72.967 19.585 72.967 19.162 C 72.967 18.767 72.927 18.438 72.843 18.177 C 72.763 17.916 72.648 17.712 72.495 17.565 C 72.347 17.421 72.166 17.316 71.967 17.26 C 71.747 17.201 71.519 17.172 71.291 17.175 L 68.808 17.175 Z M 83.705 28.8 C 82.822 28.8 82.103 28.632 81.545 28.3 C 80.983 27.967 80.545 27.49 80.231 26.869 C 79.918 26.249 79.697 25.503 79.572 24.637 C 79.448 23.771 79.384 22.801 79.384 21.735 C 79.384 20.669 79.456 19.619 79.601 18.738 C 79.745 17.86 80.002 17.115 80.376 16.506 C 80.747 15.895 81.293 15.409 81.942 15.11 C 82.617 14.79 83.48 14.63 84.541 14.63 C 85.644 14.619 86.746 14.717 87.83 14.922 C 88.309 15.018 88.787 15.126 89.264 15.25 L 89.264 17.399 C 88.913 17.353 88.561 17.315 88.208 17.287 C 87.717 17.246 87.226 17.212 86.734 17.182 C 86.174 17.15 85.613 17.134 85.051 17.134 C 84.26 17.134 83.658 17.274 83.248 17.56 C 82.838 17.844 82.556 18.321 82.408 18.99 C 82.256 19.664 82.183 20.581 82.183 21.751 C 82.183 22.657 82.223 23.398 82.307 23.976 C 82.388 24.553 82.525 25.01 82.713 25.342 C 82.902 25.675 83.151 25.907 83.461 26.039 C 83.77 26.172 84.147 26.236 84.601 26.236 C 85.12 26.236 85.613 26.192 86.083 26.103 C 86.469 26.036 86.851 25.947 87.228 25.839 L 87.228 23.126 L 84.718 23.126 L 84.718 20.922 C 84.983 20.886 85.296 20.854 85.661 20.825 C 86.027 20.801 86.409 20.777 86.802 20.761 C 87.2 20.741 87.582 20.733 87.946 20.733 C 88.349 20.733 88.71 20.733 89.031 20.742 C 89.352 20.749 89.646 20.766 89.911 20.79 L 89.911 28.704 L 87.814 28.704 L 87.437 27.763 C 87.071 27.976 86.553 28.204 85.886 28.44 C 85.22 28.681 84.496 28.797 83.713 28.797 L 83.705 28.801 Z M 97.794 28.8 C 97.442 28.797 97.092 28.769 96.745 28.716 C 96.346 28.657 95.962 28.526 95.612 28.328 C 95.251 28.125 94.951 27.818 94.716 27.406 C 94.482 26.993 94.364 26.427 94.364 25.703 L 94.364 17.849 C 94.364 17.226 94.462 16.709 94.651 16.289 C 94.842 15.872 95.097 15.539 95.413 15.297 C 95.724 15.057 96.081 14.882 96.462 14.783 C 96.827 14.684 97.204 14.632 97.583 14.63 C 99.082 14.626 100.581 14.667 102.078 14.751 C 102.66 14.783 103.195 14.824 103.677 14.876 L 103.677 17.235 L 98.421 17.235 C 98.028 17.235 97.724 17.332 97.506 17.521 C 97.292 17.712 97.183 18.002 97.183 18.395 L 97.183 20.429 L 102.762 20.583 L 102.762 22.807 L 97.183 22.961 L 97.183 24.903 C 97.183 25.233 97.235 25.488 97.344 25.671 C 97.442 25.844 97.596 25.978 97.781 26.051 C 97.968 26.119 98.158 26.155 98.364 26.155 L 103.677 26.155 L 103.677 28.514 C 103.118 28.579 102.499 28.627 101.822 28.667 C 101.142 28.704 100.458 28.736 99.765 28.765 C 99.073 28.789 98.417 28.8 97.794 28.8 Z" fill="rgb(0,0,0)"></path></g></svg>