<svg xmlns="http://www.w3.org/2000/svg" xmlns:xlink="http://www.w3.org/1999/xlink" viewBox="0 0 223 20"><path d="M 1.009 13.773 L 1.009 4.294 L 4.142 4.294 C 4.887 4.294 5.5 4.416 5.982 4.659 C 6.463 4.903 6.818 5.233 7.044 5.648 C 7.281 6.064 7.398 6.533 7.398 7.056 C 7.406 7.542 7.289 8.022 7.059 8.451 C 6.831 8.866 6.477 9.2 5.996 9.453 C 5.514 9.697 4.896 9.818 4.142 9.818 L 2.154 9.818 L 2.154 13.773 L 1.008 13.773 Z M 2.153 8.857 L 4.115 8.857 C 4.878 8.857 5.419 8.699 5.737 8.383 C 6.064 8.058 6.228 7.616 6.228 7.056 C 6.228 6.488 6.064 6.046 5.737 5.73 C 5.419 5.404 4.878 5.242 4.115 5.242 L 2.153 5.242 L 2.153 8.858 Z M 11.512 13.936 C 10.876 13.936 10.305 13.792 9.795 13.502 C 9.287 13.214 8.867 12.792 8.583 12.284 C 8.292 11.751 8.146 11.128 8.146 10.415 C 8.146 9.702 8.297 9.084 8.596 8.56 C 8.878 8.046 9.298 7.619 9.809 7.328 C 10.338 7.036 10.935 6.887 11.54 6.894 C 12.176 6.894 12.747 7.038 13.256 7.328 C 13.765 7.617 14.181 8.045 14.456 8.56 C 14.755 9.084 14.906 9.702 14.906 10.415 C 14.906 11.128 14.755 11.751 14.456 12.284 C 14.168 12.795 13.744 13.217 13.229 13.502 C 12.721 13.791 12.148 13.936 11.512 13.936 Z M 11.512 12.961 C 11.903 12.961 12.267 12.866 12.602 12.677 C 12.939 12.487 13.211 12.202 13.42 11.823 C 13.63 11.444 13.733 10.975 13.733 10.415 C 13.733 9.855 13.629 9.386 13.419 9.007 C 13.22 8.628 12.953 8.343 12.616 8.154 C 12.289 7.966 11.917 7.869 11.54 7.87 C 11.149 7.87 10.785 7.964 10.45 8.154 C 10.113 8.343 9.841 8.628 9.632 9.007 C 9.422 9.386 9.319 9.855 9.319 10.415 C 9.319 10.975 9.423 11.444 9.632 11.823 C 9.841 12.202 10.109 12.487 10.436 12.677 C 10.772 12.866 11.131 12.961 11.512 12.961 Z M 17.607 13.774 L 15.63 7.056 L 16.775 7.056 L 18.205 12.324 L 19.786 7.056 L 21.08 7.056 L 22.674 12.324 L 24.091 7.056 L 25.251 7.056 L 23.274 13.773 L 22.102 13.773 L 20.44 8.234 L 18.778 13.773 L 17.606 13.773 Z M 29.302 13.936 C 28.658 13.936 28.085 13.792 27.586 13.502 C 27.087 13.205 26.677 12.779 26.4 12.27 C 26.118 11.746 25.977 11.128 25.977 10.415 C 25.977 9.711 26.118 9.097 26.4 8.574 C 26.682 8.041 27.072 7.63 27.572 7.342 C 28.081 7.043 28.667 6.894 29.33 6.894 C 29.984 6.894 30.547 7.043 31.02 7.342 C 31.487 7.616 31.869 8.015 32.122 8.492 C 32.425 9.057 32.553 9.697 32.491 10.334 L 32.491 10.673 L 27.109 10.673 C 27.136 11.187 27.253 11.616 27.463 11.958 C 27.681 12.293 27.949 12.546 28.267 12.717 C 28.585 12.887 28.941 12.975 29.302 12.974 C 29.775 12.974 30.17 12.866 30.488 12.65 C 30.806 12.433 31.038 12.139 31.183 11.77 L 32.314 11.77 C 32.137 12.385 31.77 12.93 31.265 13.326 C 30.756 13.733 30.102 13.936 29.302 13.936 Z M 29.302 7.856 C 28.757 7.856 28.272 8.023 27.845 8.357 C 27.427 8.682 27.186 9.161 27.122 9.792 L 31.374 9.792 C 31.346 9.187 31.138 8.714 30.747 8.37 C 30.356 8.027 29.875 7.856 29.302 7.856 Z M 34.022 13.774 L 34.022 7.056 L 35.058 7.056 L 35.153 8.342 C 35.362 7.9 35.68 7.548 36.107 7.286 C 36.533 7.025 37.061 6.894 37.687 6.894 L 37.687 8.086 L 37.374 8.086 C 36.974 8.086 36.606 8.158 36.27 8.302 C 35.934 8.438 35.666 8.672 35.466 9.006 C 35.266 9.34 35.166 9.801 35.166 10.387 L 35.166 13.773 L 34.022 13.773 Z M 41.758 13.936 C 41.113 13.936 40.54 13.792 40.041 13.502 C 39.542 13.205 39.132 12.779 38.855 12.27 C 38.573 11.746 38.433 11.128 38.433 10.415 C 38.433 9.711 38.574 9.097 38.855 8.574 C 39.137 8.041 39.527 7.63 40.027 7.342 C 40.536 7.043 41.122 6.894 41.785 6.894 C 42.439 6.894 43.002 7.043 43.475 7.342 C 43.943 7.616 44.325 8.015 44.578 8.492 C 44.88 9.057 45.008 9.697 44.946 10.334 L 44.946 10.673 L 39.564 10.673 C 39.591 11.187 39.709 11.616 39.918 11.958 C 40.136 12.293 40.404 12.546 40.723 12.717 C 41.049 12.889 41.394 12.974 41.757 12.974 C 42.23 12.974 42.625 12.866 42.943 12.65 C 43.261 12.433 43.493 12.139 43.638 11.77 L 44.769 11.77 C 44.592 12.385 44.225 12.93 43.72 13.326 C 43.211 13.733 42.558 13.936 41.757 13.936 Z M 41.758 7.856 C 41.228 7.851 40.713 8.027 40.299 8.357 C 39.882 8.682 39.641 9.161 39.577 9.792 L 43.829 9.792 C 43.801 9.187 43.593 8.714 43.202 8.37 C 42.811 8.027 42.33 7.856 41.758 7.856 Z M 49.543 13.936 C 48.871 13.936 48.28 13.782 47.772 13.475 C 47.273 13.169 46.868 12.734 46.6 12.216 C 46.327 11.683 46.191 11.078 46.191 10.402 C 46.191 9.725 46.332 9.124 46.613 8.601 C 46.879 8.085 47.285 7.654 47.785 7.355 C 48.285 7.048 48.876 6.894 49.556 6.894 C 50.111 6.894 50.601 7.007 51.028 7.233 C 51.455 7.459 51.787 7.774 52.023 8.181 L 52.023 4.024 L 53.167 4.024 L 53.167 13.774 L 52.132 13.774 L 52.023 12.663 C 51.805 12.988 51.491 13.282 51.082 13.543 C 50.674 13.805 50.161 13.935 49.543 13.935 Z M 49.665 12.947 C 50.119 12.947 50.519 12.843 50.865 12.635 C 51.219 12.419 51.491 12.122 51.682 11.742 C 51.882 11.363 51.982 10.921 51.982 10.415 C 51.982 9.91 51.882 9.467 51.682 9.088 C 51.503 8.721 51.219 8.415 50.865 8.208 C 50.519 7.992 50.119 7.883 49.665 7.883 C 49.22 7.883 48.82 7.991 48.466 8.208 C 48.121 8.416 47.848 8.709 47.649 9.088 C 47.458 9.467 47.363 9.91 47.363 10.415 C 47.363 10.921 47.458 11.363 47.649 11.742 C 47.836 12.108 48.118 12.416 48.467 12.636 C 48.821 12.844 49.22 12.948 49.666 12.948 Z M 62.25 13.936 C 61.696 13.936 61.201 13.823 60.765 13.597 C 60.351 13.384 60.01 13.055 59.783 12.65 L 59.675 13.774 L 58.639 13.774 L 58.639 4.023 L 59.784 4.023 L 59.784 8.167 C 60.001 7.842 60.311 7.548 60.71 7.287 C 61.12 7.025 61.637 6.894 62.264 6.894 C 62.936 6.894 63.522 7.047 64.022 7.354 C 64.521 7.661 64.907 8.081 65.18 8.614 C 65.462 9.146 65.602 9.751 65.602 10.428 C 65.602 11.105 65.461 11.71 65.18 12.242 C 64.915 12.759 64.509 13.19 64.008 13.488 C 63.509 13.786 62.922 13.935 62.25 13.935 Z M 62.128 12.947 C 62.582 12.947 62.981 12.843 63.327 12.635 C 63.672 12.419 63.945 12.122 64.144 11.742 C 64.344 11.363 64.445 10.921 64.445 10.415 C 64.445 9.91 64.344 9.467 64.144 9.088 C 63.959 8.725 63.676 8.42 63.327 8.208 C 62.981 7.992 62.582 7.883 62.128 7.883 C 61.674 7.883 61.274 7.991 60.928 8.208 C 60.584 8.416 60.311 8.709 60.111 9.088 C 59.911 9.467 59.811 9.91 59.811 10.415 C 59.811 10.921 59.911 11.363 60.111 11.742 C 60.311 12.122 60.584 12.419 60.929 12.636 C 61.273 12.844 61.674 12.948 62.128 12.948 Z M 67.386 16.752 L 69.062 13.123 L 68.667 13.123 L 65.981 7.056 L 67.221 7.056 L 69.456 12.283 L 71.827 7.056 L 73.013 7.056 L 68.585 16.752 L 67.385 16.752 Z" fill="rgb(161, 161, 161)"></path><path d="M 94.092 0.408 L 92.737 5.424 C 92.489 5.377 92.237 5.353 91.985 5.354 C 91.611 5.354 91.25 5.405 90.902 5.494 C 90.296 5.656 89.743 5.95 89.276 6.346 L 85.584 2.676 C 86.066 2.231 86.592 1.836 87.156 1.5 L 87.439 1.334 C 88.107 0.968 88.817 0.683 89.554 0.486 C 91.038 0.096 92.596 0.068 94.093 0.406 L 94.092 0.409 Z" fill="rgb(161, 161, 161)"></path><path d="M 119.943 7.423 C 120.102 8.096 120.183 8.794 120.183 9.514 C 120.187 11.093 119.784 12.647 119.013 14.028 L 118.844 14.32 C 118.505 14.878 118.109 15.4 117.664 15.878 L 113.972 12.209 C 114.78 11.265 115.121 10.011 114.902 8.79 L 119.943 7.422 Z" fill="rgb(161, 161, 161)"></path><path d="M 109.384 13.432 L 108.026 18.447 C 107.404 18.256 106.804 18.001 106.235 17.686 L 105.958 17.528 C 105.296 17.133 104.684 16.659 104.137 16.118 C 104.137 16.114 104.134 16.114 104.134 16.114 L 103.859 15.83 C 103.647 15.6 103.447 15.361 103.259 15.112 L 106.901 11.496 L 107.707 12.331 C 108.166 12.829 108.741 13.206 109.383 13.43 L 109.384 13.431 Z M 99.511 3.915 L 95.87 7.527 L 95.867 7.53 L 95.064 6.696 C 95.023 6.656 94.988 6.616 94.946 6.576 C 94.507 6.139 93.974 5.804 93.388 5.598 L 94.743 0.582 C 95.369 0.776 95.973 1.03 96.534 1.34 L 96.811 1.501 C 97.475 1.896 98.088 2.371 98.635 2.914 L 98.91 3.196 C 99.122 3.428 99.324 3.669 99.513 3.917 Z" fill="rgb(161, 161, 161)"></path><path d="M 113.493 12.677 L 117.184 16.349 C 116.704 16.795 116.177 17.189 115.613 17.526 L 115.33 17.691 C 114.669 18.053 113.959 18.342 113.215 18.539 C 111.731 18.93 110.173 18.957 108.676 18.619 L 110.034 13.603 C 110.277 13.65 110.527 13.673 110.782 13.673 C 111.776 13.676 112.737 13.323 113.491 12.678 Z" fill="rgb(161, 161, 161)"></path><path d="M 94.269 12.996 L 97.948 16.732 C 97.593 17.024 97.217 17.288 96.821 17.523 L 96.524 17.691 C 95.867 18.056 95.157 18.342 94.416 18.539 C 92.822 18.959 91.145 18.959 89.551 18.539 C 88.818 18.344 88.111 18.06 87.447 17.694 L 87.143 17.52 C 85.823 16.731 84.717 15.632 83.923 14.32 L 83.757 14.032 C 83.441 13.468 83.187 12.872 82.998 12.254 L 88.035 10.884 C 88.241 11.474 88.579 12.01 89.023 12.452 C 89.541 12.969 90.188 13.341 90.898 13.528 C 91.246 13.622 91.606 13.668 91.981 13.668 C 92.793 13.669 93.587 13.435 94.267 12.994 Z" fill="rgb(161, 161, 161)"></path><path d="M 85.105 3.15 L 88.797 6.82 C 88.155 7.572 87.802 8.527 87.804 9.514 C 87.804 9.762 87.823 10.003 87.868 10.238 L 82.825 11.604 C 82.481 10.117 82.509 8.568 82.905 7.094 C 83.104 6.357 83.391 5.653 83.755 4.999 L 83.924 4.707 C 84.265 4.148 84.659 3.625 85.104 3.149 Z" fill="rgb(161, 161, 161)"></path><path d="M 119.771 6.776 L 114.733 8.144 C 114.528 7.553 114.19 7.016 113.743 6.576 C 113.224 6.059 112.577 5.686 111.868 5.496 C 111.158 5.309 110.412 5.309 109.702 5.496 C 109.276 5.611 108.869 5.792 108.499 6.032 L 104.819 2.296 C 105.173 2.005 105.551 1.741 105.946 1.506 L 106.243 1.334 C 107.633 0.571 109.197 0.172 110.785 0.176 C 112.373 0.173 113.935 0.572 115.324 1.335 L 115.624 1.51 C 116.945 2.299 118.051 3.397 118.845 4.71 L 119.01 4.995 C 119.324 5.558 119.579 6.15 119.773 6.778 L 119.771 6.777 Z" fill="rgb(161, 161, 161)"></path><path d="M 127.06 14.156 L 127.06 5.084 L 128.514 5.084 L 132.32 11.05 L 132.32 5.084 L 134.114 5.084 L 134.114 14.156 L 132.66 14.156 L 128.886 8.159 L 128.886 14.156 Z M 139.989 14.218 C 139.803 14.218 139.556 14.186 139.309 14.156 C 139.061 14.126 138.814 14.033 138.566 13.91 C 138.326 13.764 138.125 13.564 137.978 13.326 C 137.824 13.049 137.762 12.68 137.762 12.218 L 137.762 7.145 C 137.762 6.745 137.824 6.406 137.948 6.13 C 138.071 5.853 138.226 5.638 138.443 5.484 C 138.659 5.33 138.876 5.207 139.123 5.146 C 139.37 5.084 139.618 5.054 139.835 5.054 C 140.454 5.054 140.979 5.054 141.443 5.084 C 141.908 5.115 142.341 5.115 142.712 5.146 C 143.083 5.177 143.424 5.177 143.733 5.207 L 143.733 6.714 L 140.36 6.714 C 140.113 6.714 139.927 6.775 139.773 6.898 C 139.628 7.046 139.55 7.246 139.556 7.452 L 139.556 8.774 L 143.145 8.866 L 143.145 10.312 L 139.556 10.404 L 139.556 11.665 C 139.556 11.881 139.587 12.034 139.649 12.157 C 139.711 12.28 139.803 12.342 139.927 12.403 C 140.051 12.434 140.175 12.465 140.298 12.465 L 143.702 12.465 L 143.702 13.971 C 143.331 14.002 142.959 14.033 142.495 14.064 C 142.062 14.094 141.629 14.094 141.165 14.126 C 140.776 14.188 140.383 14.219 139.989 14.218 Z M 149.151 14.156 L 149.151 6.714 L 146.675 6.714 L 146.675 5.084 L 153.451 5.084 L 153.451 6.714 L 150.976 6.714 L 150.976 14.156 Z M 156.636 14.156 L 156.636 5.084 L 158.431 5.084 L 158.431 8.836 L 161.834 8.836 L 161.834 5.084 L 163.659 5.084 L 163.659 14.156 L 161.834 14.156 L 161.834 10.466 L 158.431 10.466 L 158.431 14.156 Z M 169.6 14.218 C 169.415 14.218 169.167 14.186 168.92 14.156 C 168.672 14.126 168.425 14.033 168.177 13.91 C 167.938 13.764 167.736 13.564 167.589 13.326 C 167.434 13.049 167.372 12.68 167.372 12.218 L 167.372 7.145 C 167.372 6.745 167.434 6.406 167.558 6.13 C 167.682 5.853 167.837 5.638 168.053 5.484 C 168.27 5.33 168.487 5.207 168.734 5.146 C 168.982 5.084 169.229 5.054 169.445 5.054 C 170.064 5.054 170.59 5.054 171.055 5.084 C 171.518 5.115 171.952 5.115 172.323 5.146 C 172.694 5.177 173.034 5.177 173.343 5.207 L 173.343 6.714 L 170.002 6.714 C 169.755 6.714 169.569 6.775 169.415 6.898 C 169.27 7.046 169.192 7.246 169.198 7.452 L 169.198 8.774 L 172.787 8.866 L 172.787 10.312 L 169.198 10.404 L 169.198 11.665 C 169.198 11.881 169.229 12.034 169.291 12.157 C 169.353 12.28 169.445 12.342 169.569 12.403 C 169.693 12.434 169.817 12.465 169.94 12.465 L 173.343 12.465 L 173.343 13.971 C 172.972 14.002 172.601 14.033 172.137 14.064 C 171.704 14.094 171.271 14.094 170.807 14.126 C 170.407 14.187 170.004 14.218 169.6 14.218 Z M 176.87 14.156 L 176.87 5.084 L 180.613 5.084 C 180.984 5.084 181.294 5.115 181.603 5.207 C 181.912 5.299 182.191 5.423 182.408 5.638 C 182.624 5.854 182.841 6.13 182.965 6.53 C 183.114 6.997 183.187 7.485 183.181 7.975 C 183.181 8.406 183.151 8.743 183.057 9.051 C 182.965 9.358 182.872 9.574 182.718 9.789 C 182.595 9.972 182.437 10.129 182.253 10.25 C 182.068 10.374 181.912 10.466 181.727 10.527 L 183.398 14.156 L 181.541 14.156 L 180.087 10.804 L 178.633 10.804 L 178.633 14.186 L 176.87 14.186 Z M 178.664 9.328 L 180.273 9.328 C 180.428 9.328 180.582 9.297 180.706 9.266 C 180.83 9.236 180.954 9.143 181.046 9.05 C 181.161 8.932 181.236 8.783 181.263 8.621 C 181.325 8.437 181.356 8.221 181.356 7.944 C 181.356 7.698 181.325 7.483 181.263 7.329 C 181.201 7.145 181.14 7.022 181.046 6.929 C 180.951 6.839 180.834 6.775 180.706 6.745 C 180.565 6.707 180.42 6.686 180.273 6.683 L 178.664 6.683 Z M 186.459 14.156 L 187.512 5.084 L 189.244 5.084 L 191.317 12.034 L 193.39 5.084 L 195.123 5.084 L 196.174 14.156 L 194.442 14.156 L 193.637 7.452 L 193.916 7.483 L 192.153 14.155 L 190.451 14.155 L 188.656 7.483 L 188.966 7.483 L 188.223 14.155 L 186.459 14.155 Z M 201.466 5.084 L 199.672 5.084 L 199.672 14.156 L 201.466 14.156 Z M 205.303 14.156 L 205.303 5.084 L 206.757 5.084 L 210.531 11.05 L 210.531 5.084 L 212.357 5.084 L 212.357 14.156 L 210.902 14.156 L 207.128 8.159 L 207.128 14.156 Z M 216.04 14.156 L 216.04 5.084 L 219.846 5.084 C 220.465 5.084 220.96 5.207 221.363 5.422 C 221.764 5.638 222.105 5.945 222.321 6.345 C 222.568 6.745 222.723 7.237 222.847 7.79 C 222.94 8.344 223.002 8.958 223.002 9.635 C 223.002 10.65 222.878 11.511 222.662 12.157 C 222.445 12.834 222.073 13.325 221.61 13.664 C 221.145 14.002 220.557 14.156 219.846 14.156 Z M 217.835 12.526 L 219.661 12.526 C 220.032 12.526 220.341 12.434 220.557 12.218 C 220.774 12.002 220.929 11.665 221.022 11.234 C 221.13 10.708 221.182 10.172 221.177 9.635 C 221.177 9.051 221.145 8.559 221.084 8.19 C 221.022 7.822 220.929 7.514 220.805 7.298 C 220.681 7.082 220.527 6.929 220.341 6.867 C 220.156 6.775 219.939 6.745 219.691 6.745 L 217.866 6.745 L 217.866 12.526 Z" fill="rgb(161, 161, 161)"></path></svg>